<svg xmlns="http://www.w3.org/2000/svg"  viewBox="0 0 60 60" width="49px" height="49px"><path d="M 51 0 C 48.979 -2.9605947e-16 47.185203 1.2234844 46.408203 3.0214844 C 44.065203 2.7764844 42 4.659 42 7 C 42 9.206 43.794 11 46 11 L 56 11 C 58.206 11 60 9.206 60 7 C 60 4.659 57.937797 2.7774844 55.591797 3.0214844 C 54.814797 1.2234844 53.021 0 51 0 z M 51 2 C 52.424 2 53.660453 3.0112969 53.939453 4.4042969 C 53.998453 4.6932969 54.180453 4.9439375 54.439453 5.0859375 C 54.698453 5.2279375 55.00625 5.246625 55.28125 5.140625 C 56.66125 4.607625 58 5.662 58 7 C 58 8.103 57.103 9 56 9 L 46 9 C 44.897 9 44 8.103 44 7 C 44 5.897 44.897 5 46 5 C 46.235 5 46.47775 5.046625 46.71875 5.140625 C 46.99375 5.246625 47.301547 5.2279375 47.560547 5.0859375 C 47.819547 4.9439375 48.002547 4.6932969 48.060547 4.4042969 C 48.340547 3.0112969 49.576 2 51 2 z M 9 5 C 6.979 5 5.1852031 6.2234844 4.4082031 8.0214844 C 2.0642031 7.7704844 0 9.659 0 12 C 0 14.206 1.794 16 4 16 L 14 16 C 16.206 16 18 14.206 18 12 C 18 9.659 15.940797 7.7714844 13.591797 8.0214844 C 12.814797 6.2234844 11.021 5 9 5 z M 9 7 C 10.424 7 11.660453 8.0112969 11.939453 9.4042969 C 11.998453 9.6932969 12.180453 9.9449375 12.439453 10.085938 C 12.698453 10.226938 13.00625 10.245625 13.28125 10.140625 C 14.66225 9.607625 16 10.662 16 12 C 16 13.103 15.103 14 14 14 L 4 14 C 2.897 14 2 13.103 2 12 C 2 10.897 2.897 10 4 10 C 4.235 10 4.47775 10.046625 4.71875 10.140625 C 4.99375 10.246625 5.3015469 10.227937 5.5605469 10.085938 C 5.8195469 9.9439375 6.0025469 9.6932969 6.0605469 9.4042969 C 6.3405469 8.0112969 7.576 7 9 7 z M 30 8 C 29.448 8 29 8.448 29 9 L 29 16 C 29 16.552 29.448 17 30 17 C 30.552 17 31 16.552 31 16 L 31 9 C 31 8.448 30.552 8 30 8 z M 20.994141 15 C 20.864313 15.000656 20.732219 15.025328 20.605469 15.080078 C 20.098469 15.297078 19.862078 15.886531 20.080078 16.394531 L 23.080078 23.394531 C 23.243078 23.772531 23.612 24 24 24 C 24.132 24 24.264578 23.974922 24.392578 23.919922 C 24.899578 23.702922 25.135969 23.113469 24.917969 22.605469 L 21.917969 15.605469 C 21.754469 15.225219 21.383625 14.998031 20.994141 15 z M 39.005859 15 C 38.616375 14.998547 38.245531 15.225969 38.082031 15.605469 L 35.082031 22.605469 C 34.864031 23.113469 35.099422 23.700969 35.607422 23.917969 C 35.735422 23.973969 35.869 24 36 24 C 36.387 24 36.756922 23.772578 36.919922 23.392578 L 39.919922 16.392578 C 40.137922 15.884578 39.902531 15.297078 39.394531 15.080078 C 39.267781 15.025828 39.135687 15.000484 39.005859 15 z M 30 19 C 29.448 19 29 19.448 29 20 L 29 22 C 29 22.552 29.448 23 30 23 C 30.552 23 31 22.552 31 22 L 31 20 C 31 19.448 30.552 19 30 19 z M 15 22 C 14.744 22 14.487969 22.097469 14.292969 22.292969 C 13.901969 22.683969 13.901969 23.316031 14.292969 23.707031 L 17.292969 26.707031 C 17.487969 26.902031 17.744 27 18 27 C 18.256 27 18.512031 26.902031 18.707031 26.707031 C 19.098031 26.316031 19.098031 25.683969 18.707031 25.292969 L 15.707031 22.292969 C 15.512031 22.097469 15.256 22 15 22 z M 45 22 C 44.744 22 44.487969 22.097469 44.292969 22.292969 L 41.292969 25.292969 C 40.901969 25.683969 40.901969 26.316031 41.292969 26.707031 C 41.487969 26.902031 41.744 27 42 27 C 42.256 27 42.512031 26.902031 42.707031 26.707031 L 45.707031 23.707031 C 46.098031 23.316031 46.098031 22.683969 45.707031 22.292969 C 45.512031 22.097469 45.256 22 45 22 z M 30 25 C 20.075 25 12 33.075 12 43 C 12 43.981001 12.09164 44.985791 12.267578 46 L 1 46 C 0.448 46 0 46.448 0 47 C 0 47.552 0.448 48 1 48 L 13.492188 48 L 46.507812 48 L 59 48 C 59.552 48 60 47.552 60 47 C 60 46.448 59.552 46 59 46 L 47.732422 46 C 47.90836 44.985791 48 43.981001 48 43 C 48 33.075 39.925 25 30 25 z M 30 27 C 38.823 27 46 34.178 46 43 C 46 43.977 45.899172 44.982 45.701172 46 L 14.298828 46 C 14.100828 44.982 14 43.977 14 43 C 14 34.178 21.177 27 30 27 z M 29.996094 29 C 27.195094 29 24.658078 29.728109 22.455078 31.162109 C 21.992078 31.463109 21.861109 32.081922 22.162109 32.544922 C 22.354109 32.839922 22.674953 33 23.001953 33 C 23.188953 33 23.376922 32.947891 23.544922 32.837891 C 25.418922 31.617891 27.589094 31 29.996094 31 L 30 31 C 30.552 31 31 30.552 31 30 C 31 29.446 30.560094 28.987 29.996094 29 z M 19.142578 35.009766 C 18.756703 34.954453 18.356328 35.129625 18.142578 35.484375 C 16.800578 37.714375 16 40.523 16 43 C 16 43.552 16.448 44 17 44 C 17.552 44 18 43.552 18 43 C 18 40.903 18.711422 38.418578 19.857422 36.517578 C 20.142422 36.043578 19.988625 35.429531 19.515625 35.144531 C 19.397375 35.073281 19.271203 35.028203 19.142578 35.009766 z M 10 52 C 9.448 52 9 52.448 9 53 C 9 53.552 9.448 54 10 54 L 17 54 C 17.552 54 18 53.552 18 53 C 18 52.448 17.552 52 17 52 L 10 52 z M 21 52 C 20.448 52 20 52.448 20 53 C 20 53.552 20.448 54 21 54 L 52 54 C 52.552 54 53 53.552 53 53 C 53 52.448 52.552 52 52 52 L 21 52 z M 14 58 C 13.448 58 13 58.448 13 59 C 13 59.552 13.448 60 14 60 L 34 60 C 34.552 60 35 59.552 35 59 C 35 58.448 34.552 58 34 58 L 14 58 z M 38 58 C 37.448 58 37 58.448 37 59 C 37 59.552 37.448 60 38 60 L 47 60 C 47.552 60 48 59.552 48 59 C 48 58.448 47.552 58 47 58 L 38 58 z"/></svg>